<?xml version="1.0" encoding="utf-8"?>
<!-- Generator: Adobe Illustrator 25.0.0, SVG Export Plug-In . SVG Version: 6.00 Build 0)  -->
<svg version="1.1" id="Ebene_1" xmlns="http://www.w3.org/2000/svg" xmlns:xlink="http://www.w3.org/1999/xlink" x="0px" y="0px"
	 viewBox="0 0 109.3 109.3" style="enable-background:new 0 0 109.3 109.3;" xml:space="preserve">
<style type="text/css">
	.st0{fill:none;stroke:#005B81;stroke-width:3.9998;stroke-linejoin:round;stroke-miterlimit:9.9994;}
	.st1{fill:none;stroke:#005B81;stroke-width:4;stroke-linejoin:round;stroke-miterlimit:10;}
	.st2{fill:none;stroke:#005B81;stroke-width:4;stroke-miterlimit:10.0002;}
	.st3{fill:none;stroke:#005B81;stroke-width:4;stroke-miterlimit:10;}
</style>
<g>
	<ellipse transform="matrix(0.9883 -0.1523 0.1523 0.9883 -9.447 9.669)" class="st0" cx="58.4" cy="66.5" rx="30.1" ry="7.1"/>
	<path class="st1" d="M25,47.1c-0.1-3.8,12.6-8.8,28.6-11.3s29.6-1.5,30.7,2.2l0,0L88,62.3l0,0c-1.1-3.7-14.6-4.7-30.7-2.2
		c-16,2.4-28.7,7.5-28.6,11.3l0,0L25,47.1L25,47.1z"/>
	
		<rect x="14.8" y="52.2" transform="matrix(1 -4.219187e-03 4.219187e-03 1 -0.2709 6.597007e-02)" class="st2" width="1.4" height="24.1"/>
	<path class="st3" d="M10.5,79.9c0-2.1,2.3-3.7,4.7-3.7s4.7,1.5,4.7,3.6C20,83,20,93,20,93h-9.6C10.4,93.2,10.4,83.1,10.5,79.9z"/>
	<path class="st1" d="M104.8,31.8L48.6,17.9L4.5,47.7l21.6,7l-1.2-7.6l0,0c-0.1-3.8,12.6-8.8,28.6-11.3c16.1-2.5,29.6-1.5,30.7,2.2
		l0,0l1,6.7L104.8,31.8z"/>
</g>
</svg>
