<?xml version="1.0" encoding="utf-8"?>
<!-- Generator: Adobe Illustrator 25.0.0, SVG Export Plug-In . SVG Version: 6.00 Build 0)  -->
<svg version="1.1" id="Ebene_1" xmlns="http://www.w3.org/2000/svg" xmlns:xlink="http://www.w3.org/1999/xlink" x="0px" y="0px"
	 viewBox="0 0 109.3 109.3" style="enable-background:new 0 0 109.3 109.3;" xml:space="preserve">
<style type="text/css">
	.st0{fill:url(#SVGID_1_);}
	.st1{fill:#FFFFFF;}
	.st2{fill:none;stroke:#005B81;stroke-width:3.9999;stroke-linejoin:round;stroke-miterlimit:9.9997;}
	.st3{fill:none;stroke:#005B81;stroke-width:4;stroke-linejoin:round;stroke-miterlimit:10;}
	.st4{fill:none;stroke:#005B81;stroke-width:4;stroke-miterlimit:10.0001;}
	.st5{fill:none;stroke:#005B81;stroke-width:4;stroke-miterlimit:10;}
</style>
<linearGradient id="SVGID_1_" gradientUnits="userSpaceOnUse" x1="438.2777" y1="243.4088" x2="-102.4085" y2="-68.7565" gradientTransform="matrix(1 0 0 -1 0 224.1125)">
	<stop  offset="0" style="stop-color:#00988F"/>
	<stop  offset="0.6369" style="stop-color:#005B81"/>
</linearGradient>
<rect x="-83.3" y="-9.9" class="st0" width="576" height="251"/>
<g>
	<path class="st1" d="M340.5,89.4c-7.3,0-12.6,2.6-15.9,7.8c-3.3,5.2-5,13.2-5.1,24v8.6c0,11.1,1.7,19.3,5,24.5s8.6,7.8,15.9,7.8
		c9.3,0,16.1-4.5,20.3-13.4v-44.9C356.8,94.2,350,89.4,340.5,89.4z"/>
	<path class="st1" d="M456.5,89.1c-6.9,0-12.4,2.8-16.4,8.4c-4.1,5.6-6.1,13.3-6.2,23.1v9.6c0,10,2,17.8,6,23.5s9.6,8.6,16.8,8.6
		c7.3,0,12.9-2.7,16.8-8.2c3.9-5.5,5.8-13.4,5.9-23.6v-9.2c0-10-2-17.8-6.1-23.6C469.2,92,463.6,89.1,456.5,89.1z"/>
	<path class="st1" d="M-128.3-26.9v299h715v-299H-128.3z M95.1,126.5H43.6v4.9c0,9.9,2.1,17.6,6.4,23s10.2,8.1,18,8.1
		c8.5,0,15.5-3.1,20.7-9.4l4.6,5.9c-5.7,7.7-14.3,11.6-25.8,11.6c-10.2,0-18.2-3.3-23.9-10s-8.7-16.2-8.8-28.5v-10.6
		c0-12.7,2.8-22.7,8.3-29.9c5.6-7.2,13.2-10.9,22.9-10.9c9.4,0,16.6,3.1,21.5,9.2s7.5,15.5,7.6,28.2L95.1,126.5L95.1,126.5z
		 M158.8,164.3c-5,4.2-11.5,6.3-19.6,6.3c-8.6,0-15.5-2.3-20.9-7c-5.3-4.7-8-10.8-8-18.2h9c0.3,5.4,2.1,9.5,5.4,12.5
		c3.3,2.9,8.2,4.4,14.5,4.4c5.4,0,9.8-1.3,13.1-4s5-6.2,5-10.6c0-3.7-1.5-7-4.6-9.8s-8.3-5.9-15.7-9.2c-7.4-3.3-12.6-6.1-15.5-8.3
		s-5.1-4.6-6.5-7.2c-1.4-2.6-2.1-5.7-2.1-9.3c0-6.7,2.4-12.2,7.2-16.5c4.8-4.4,11-6.5,18.7-6.5c8.2,0,14.8,2.3,19.7,7
		c4.9,4.6,7.4,10.8,7.4,18.4H157c0-4.9-1.7-9-5-12.2c-3.4-3.2-7.7-4.8-13.1-4.8c-5.2,0-9.4,1.3-12.5,4c-3.1,2.7-4.6,6.1-4.6,10.4
		c0,3.5,1.2,6.3,3.5,8.5s7.4,5.2,15.2,8.9c8.1,3.5,13.6,6.4,16.7,8.7c3.1,2.3,5.3,4.8,6.9,7.6c1.5,2.8,2.3,6.1,2.3,10
		C166.3,154.4,163.8,160.1,158.8,164.3z M207.7,170.6c-10.4,0-15.7-7.2-16-21.5V90.3h-13.4v-8h13.4v-22h8.9v22.1h14.8v8h-14.8V148
		c0,4.8,0.7,8.3,2.1,10.6s3.8,3.5,7.1,3.5c1.4,0,3.6-0.3,6.4-0.8l0.2,8C214.4,170.2,211.5,170.6,207.7,170.6z M290,169h-8.6
		l-0.2-10.3c-4.9,8-12.5,11.9-22.8,11.9c-7.8,0-13.8-2.7-17.8-8.2s-6-13.5-6.1-24V82.3h8.8v55.8c0,7.8,1.4,13.8,4.2,17.9
		c2.8,4.1,6.8,6.1,12,6.1c11.2,0,18.4-5.4,21.5-16.3V82.4h9V169z M369.7,169h-8.3l-0.4-11.1c-4.9,8.5-12.3,12.7-22.3,12.7
		c-9.1,0-16.1-3.5-20.9-10.4s-7.2-16.8-7.3-29.5v-9c0-13.6,2.4-23.8,7.1-30.6c4.8-6.9,11.8-10.3,21.1-10.3c9.8,0,17.2,4.4,22,13.2
		V46h8.9L369.7,169L369.7,169z M403.6,169h-9V82.4h9V169z M403.6,62c-1,1.3-2.5,1.9-4.4,1.9s-3.3-0.6-4.3-1.9s-1.5-2.8-1.5-4.6
		c0-1.8,0.5-3.4,1.5-4.6c1-1.3,2.5-1.9,4.3-1.9c1.9,0,3.3,0.6,4.4,1.9s1.6,2.8,1.6,4.6C405.1,59.2,404.6,60.8,403.6,62z
		 M488.2,130.3c0,12.7-2.8,22.6-8.5,29.7s-13.4,10.7-23,10.7c-9.7,0-17.3-3.5-23-10.4s-8.6-16.5-8.8-28.7v-10.3
		c0-12.5,2.8-22.4,8.5-29.6c5.7-7.3,13.4-10.9,23.1-10.9c9.8,0,17.5,3.6,23.2,10.7c5.6,7.2,8.5,17,8.5,29.5V130.3z"/>
	<path class="st1" d="M66,89.1c-7,0-12.4,2.5-16.1,7.4c-3.8,4.9-5.8,12.2-6.2,21.7h42.5v-2.3C85.8,98,79,89.1,66,89.1z"/>
</g>
<g>
	<ellipse transform="matrix(0.9883 -0.1523 0.1523 0.9883 -9.4543 9.6715)" class="st2" cx="58.4" cy="66.5" rx="30.1" ry="7.1"/>
	<path class="st3" d="M25,47.1c-0.1-3.8,12.6-8.8,28.6-11.3s29.6-1.5,30.7,2.2l0,0L88,62.3l0,0c-1.1-3.7-14.6-4.7-30.7-2.2
		c-16,2.4-28.7,7.5-28.6,11.3l0,0L25,47.1L25,47.1z"/>
	
		<rect x="14.8" y="52.2" transform="matrix(1 -4.219225e-03 4.219225e-03 1 -0.2709 6.607132e-02)" class="st4" width="1.4" height="24.1"/>
	<path class="st5" d="M10.5,79.9c0-2.1,2.3-3.7,4.7-3.7s4.7,1.5,4.7,3.6C20,83,20,93,20,93h-9.6C10.4,93.2,10.4,83.1,10.5,79.9z"/>
	<path class="st3" d="M104.8,31.8L48.6,17.9L4.5,47.7l21.6,7l-1.2-7.6l0,0c-0.1-3.8,12.6-8.8,28.6-11.3c16.1-2.5,29.6-1.5,30.7,2.2
		l0,0l1,6.7L104.8,31.8z"/>
</g>
<rect x="28.6" y="80.7" class="st1" width="141.8" height="98.9"/>
</svg>
