<?xml version="1.0" encoding="utf-8"?>
<!-- Generator: Adobe Illustrator 25.0.0, SVG Export Plug-In . SVG Version: 6.00 Build 0)  -->
<svg version="1.1" id="Ebene_1" xmlns="http://www.w3.org/2000/svg" xmlns:xlink="http://www.w3.org/1999/xlink" x="0px" y="0px"
	 viewBox="0 0 616 277" style="enable-background:new 0 0 616 277;" xml:space="preserve">
<style type="text/css">
	.st0{fill:url(#SVGID_1_);}
	.st1{fill:#FFFFFF;}
	.st2{fill:none;stroke:#005B81;stroke-width:4;stroke-linejoin:round;stroke-miterlimit:10;}
	.st3{fill:none;stroke:#005B81;stroke-width:4;stroke-miterlimit:10;}
</style>
<linearGradient id="SVGID_1_" gradientUnits="userSpaceOnUse" x1="516.5682" y1="49.8448" x2="-72.7225" y2="264.329">
	<stop  offset="0" style="stop-color:#11B3D4"/>
	<stop  offset="1" style="stop-color:#005B81"/>
</linearGradient>
<rect x="-26" y="17" class="st0" width="576" height="251"/>
<g>
	<path class="st1" d="M397.8,116.3c-7.3,0-12.6,2.6-15.9,7.8c-3.3,5.2-5,13.2-5.1,24v8.6c0,11.1,1.7,19.3,5,24.5s8.6,7.8,15.9,7.8
		c9.3,0,16.1-4.5,20.3-13.4v-44.9C414.1,121.1,407.3,116.3,397.8,116.3z"/>
	<path class="st1" d="M513.8,116c-6.9,0-12.4,2.8-16.4,8.4c-4.1,5.6-6.1,13.3-6.2,23.1v9.6c0,10,2,17.8,6,23.5s9.6,8.6,16.8,8.6
		c7.3,0,12.9-2.7,16.8-8.2c3.9-5.5,5.8-13.4,5.9-23.6v-9.2c0-10-2-17.8-6.1-23.6C526.5,118.9,520.9,116,513.8,116z"/>
	<path class="st1" d="M-71,0v299h715V0H-71z M152.4,153.4h-51.5v4.9c0,9.9,2.1,17.6,6.4,23s10.2,8.1,18,8.1c8.5,0,15.5-3.1,20.7-9.4
		l4.6,5.9c-5.7,7.7-14.3,11.6-25.8,11.6c-10.2,0-18.2-3.3-23.9-10s-8.7-16.2-8.8-28.5v-10.6c0-12.7,2.8-22.7,8.3-29.9
		c5.6-7.2,13.2-10.9,22.9-10.9c9.4,0,16.6,3.1,21.5,9.2c4.9,6.1,7.5,15.5,7.6,28.2V153.4z M216.1,191.2c-5,4.2-11.5,6.3-19.6,6.3
		c-8.6,0-15.5-2.3-20.9-7c-5.3-4.7-8-10.8-8-18.2h9c0.3,5.4,2.1,9.5,5.4,12.5c3.3,2.9,8.2,4.4,14.5,4.4c5.4,0,9.8-1.3,13.1-4
		c3.3-2.7,5-6.2,5-10.6c0-3.7-1.5-7-4.6-9.8c-3.1-2.8-8.3-5.9-15.7-9.2c-7.4-3.3-12.6-6.1-15.5-8.3c-2.9-2.2-5.1-4.6-6.5-7.2
		c-1.4-2.6-2.1-5.7-2.1-9.3c0-6.7,2.4-12.2,7.2-16.5c4.8-4.4,11-6.5,18.7-6.5c8.2,0,14.8,2.3,19.7,7c4.9,4.6,7.4,10.8,7.4,18.4h-8.9
		c0-4.9-1.7-9-5-12.2c-3.4-3.2-7.7-4.8-13.1-4.8c-5.2,0-9.4,1.3-12.5,4c-3.1,2.7-4.6,6.1-4.6,10.4c0,3.5,1.2,6.3,3.5,8.5
		c2.3,2.2,7.4,5.2,15.2,8.9c8.1,3.5,13.6,6.4,16.7,8.7s5.3,4.8,6.9,7.6c1.5,2.8,2.3,6.1,2.3,10C223.6,181.3,221.1,187,216.1,191.2z
		 M265,197.5c-10.4,0-15.7-7.2-16-21.5v-58.8h-13.4v-8H249V87.2h8.9v22.1h14.8v8h-14.8v57.6c0,4.8,0.7,8.3,2.1,10.6
		c1.4,2.3,3.8,3.5,7.1,3.5c1.4,0,3.6-0.3,6.4-0.8l0.2,8C271.7,197.1,268.8,197.5,265,197.5z M347.3,195.9h-8.6l-0.2-10.3
		c-4.9,8-12.5,11.9-22.8,11.9c-7.8,0-13.8-2.7-17.8-8.2s-6-13.5-6.1-24v-56.1h8.8v55.8c0,7.8,1.4,13.8,4.2,17.9
		c2.8,4.1,6.8,6.1,12,6.1c11.2,0,18.4-5.4,21.5-16.3v-63.4h9V195.9z M427,195.9h-8.3l-0.4-11.1c-4.9,8.5-12.3,12.7-22.3,12.7
		c-9.1,0-16.1-3.5-20.9-10.4s-7.2-16.8-7.3-29.5v-9c0-13.6,2.4-23.8,7.1-30.6c4.8-6.9,11.8-10.3,21.1-10.3c9.8,0,17.2,4.4,22,13.2
		v-48h8.9V195.9z M460.9,195.9h-9v-86.6h9V195.9z M460.9,88.9c-1,1.3-2.5,1.9-4.4,1.9c-1.9,0-3.3-0.6-4.3-1.9
		c-1-1.3-1.5-2.8-1.5-4.6c0-1.8,0.5-3.4,1.5-4.6c1-1.3,2.5-1.9,4.3-1.9c1.9,0,3.3,0.6,4.4,1.9s1.6,2.8,1.6,4.6
		C462.4,86.1,461.9,87.7,460.9,88.9z M545.5,157.2c0,12.7-2.8,22.6-8.5,29.7s-13.4,10.7-23,10.7c-9.7,0-17.3-3.5-23-10.4
		c-5.7-6.9-8.6-16.5-8.8-28.7v-10.3c0-12.5,2.8-22.4,8.5-29.6c5.7-7.3,13.4-10.9,23.1-10.9c9.8,0,17.5,3.6,23.2,10.7
		c5.6,7.2,8.5,17,8.5,29.5V157.2z"/>
	<path class="st1" d="M123.3,116c-7,0-12.4,2.5-16.1,7.4c-3.8,4.9-5.8,12.2-6.2,21.7h42.5v-2.3C143.1,124.9,136.3,116,123.3,116z"/>
</g>
<g>
	
		<ellipse transform="matrix(0.9883 -0.1523 0.1523 0.9883 -12.8892 18.7071)" class="st2" cx="115.7" cy="93.5" rx="30.1" ry="7.1"/>
	<path class="st2" d="M82.3,74c-0.1-3.8,12.6-8.8,28.6-11.3s29.6-1.5,30.7,2.2l0,0l3.7,24.3l0,0c-1.1-3.7-14.6-4.7-30.7-2.2
		C98.6,89.4,85.9,94.5,86,98.3l0,0L82.3,74L82.3,74z"/>
	
		<rect x="72.2" y="79" transform="matrix(-1 4.219263e-03 -4.219263e-03 -1 146.102 181.9138)" class="st3" width="1.4" height="24.1"/>
	<path class="st3" d="M67.8,106.8c0-2.1,2.3-3.7,4.7-3.7s4.7,1.5,4.7,3.6c0.1,3.2,0.1,13.2,0.1,13.2l-9.6,0
		C67.7,120.1,67.7,110,67.8,106.8z"/>
	<path class="st2" d="M162.1,58.7l-56.2-13.9L61.8,74.6l21.6,7L82.2,74l0,0c-0.1-3.8,12.6-8.8,28.6-11.3c16.1-2.5,29.6-1.5,30.7,2.2
		l0,0l1,6.7L162.1,58.7z"/>
</g>
</svg>
