<?xml version="1.0" encoding="utf-8"?>
<!-- Generator: Adobe Illustrator 25.0.0, SVG Export Plug-In . SVG Version: 6.00 Build 0)  -->
<svg version="1.1" id="Ebene_1" xmlns="http://www.w3.org/2000/svg" xmlns:xlink="http://www.w3.org/1999/xlink" x="0px" y="0px"
	 viewBox="0 0 613 228" style="enable-background:new 0 0 613 228;" xml:space="preserve">
<style type="text/css">
	.st0{fill:#FFFFFF;}
	.st1{fill:none;stroke:#FFFFFF;stroke-width:4;stroke-linejoin:round;stroke-miterlimit:10;}
	.st2{fill:none;stroke:#FFFFFF;stroke-width:4;stroke-miterlimit:10;}
</style>
<g>
	<path class="st0" d="M123.8,186.5c-10.2,0-18.2-3.3-23.9-10s-8.7-16.2-8.8-28.5v-10.6c0-12.7,2.8-22.7,8.3-29.9
		c5.6-7.2,13.2-10.9,22.9-10.9c9.4,0,16.6,3.1,21.5,9.2c4.9,6.1,7.5,15.5,7.6,28.2v8.3H99.9v4.9c0,9.9,2.1,17.6,6.4,23
		s10.2,8.1,18,8.1c8.5,0,15.5-3.1,20.7-9.4l4.6,5.9C144,182.7,135.4,186.5,123.8,186.5z M122.3,105c-7,0-12.4,2.5-16.1,7.4
		c-3.8,4.9-5.8,12.2-6.2,21.7h42.5v-2.3C142.1,113.9,135.3,105,122.3,105z"/>
	<path class="st0" d="M213.6,163.6c0-3.7-1.5-7-4.6-9.8c-3.1-2.8-8.3-5.9-15.7-9.2c-7.4-3.3-12.6-6.1-15.5-8.3
		c-2.9-2.2-5.1-4.6-6.5-7.2c-1.4-2.6-2.1-5.7-2.1-9.3c0-6.7,2.4-12.2,7.2-16.5c4.8-4.4,11-6.5,18.7-6.5c8.2,0,14.8,2.3,19.7,7
		c4.9,4.6,7.4,10.8,7.4,18.4h-8.9c0-4.9-1.7-9-5-12.2c-3.4-3.2-7.7-4.8-13.1-4.8c-5.2,0-9.4,1.3-12.5,4c-3.1,2.7-4.6,6.1-4.6,10.4
		c0,3.5,1.2,6.3,3.5,8.5c2.3,2.2,7.4,5.2,15.2,8.9c8.1,3.5,13.6,6.4,16.7,8.7s5.3,4.8,6.9,7.6c1.5,2.8,2.3,6.1,2.3,10
		c0,7.2-2.5,12.8-7.4,17.1s-11.5,6.3-19.6,6.3c-8.6,0-15.5-2.3-20.9-7c-5.3-4.7-8-10.8-8-18.2h9c0.3,5.4,2.1,9.5,5.4,12.5
		c3.3,2.9,8.2,4.4,14.5,4.4c5.4,0,9.8-1.3,13.1-4C211.9,171.5,213.6,168,213.6,163.6z"/>
	<path class="st0" d="M256.8,76.2v22.1h14.8v8h-14.8v57.6c0,4.8,0.7,8.3,2.1,10.6c1.4,2.3,3.8,3.5,7.1,3.5c1.4,0,3.6-0.3,6.4-0.8
		l0.2,8c-2,0.9-4.9,1.4-8.7,1.4c-10.4,0-15.7-7.2-16-21.5v-58.8h-13.4v-8H248V76.2H256.8z"/>
	<path class="st0" d="M337.5,174.6c-4.9,8-12.5,11.9-22.8,11.9c-7.8,0-13.8-2.7-17.8-8.2s-6-13.5-6.1-24V98.3h8.8v55.8
		c0,7.8,1.4,13.8,4.2,17.9c2.8,4.1,6.8,6.1,12,6.1c11.2,0,18.4-5.4,21.5-16.3V98.3h9v86.6h-8.6L337.5,174.6z"/>
	<path class="st0" d="M366.8,137.6c0-13.6,2.4-23.8,7.1-30.6c4.8-6.9,11.8-10.3,21.1-10.3c9.8,0,17.2,4.4,22,13.2v-48h8.9v123h-8.3
		l-0.4-11.1c-4.9,8.5-12.3,12.7-22.3,12.7c-9.1,0-16.1-3.5-20.9-10.4s-7.2-16.8-7.3-29.5V137.6z M375.8,145.7
		c0,11.1,1.7,19.3,5,24.5s8.6,7.8,15.9,7.8c9.3,0,16.1-4.5,20.3-13.4v-44.9c-4-9.7-10.8-14.5-20.3-14.5c-7.3,0-12.6,2.6-15.9,7.8
		c-3.3,5.2-5,13.2-5.1,24V145.7z"/>
	<path class="st0" d="M449.7,73.3c0-1.8,0.5-3.4,1.5-4.6c1-1.3,2.5-1.9,4.3-1.9c1.9,0,3.3,0.6,4.4,1.9s1.6,2.8,1.6,4.6
		c0,1.8-0.5,3.4-1.6,4.6c-1,1.3-2.5,1.9-4.4,1.9c-1.9,0-3.3-0.6-4.3-1.9C450.2,76.7,449.7,75.1,449.7,73.3z M459.9,184.9h-9V98.3h9
		V184.9z"/>
	<path class="st0" d="M481.1,137.2c0-12.5,2.8-22.4,8.5-29.6c5.7-7.3,13.4-10.9,23.1-10.9c9.8,0,17.5,3.6,23.2,10.7
		c5.6,7.2,8.5,17,8.5,29.5v9.2c0,12.7-2.8,22.6-8.5,29.7s-13.4,10.7-23,10.7c-9.7,0-17.3-3.5-23-10.4c-5.7-6.9-8.6-16.5-8.8-28.7
		V137.2z M490.1,146.1c0,10,2,17.8,6,23.5s9.6,8.6,16.8,8.6c7.3,0,12.9-2.7,16.8-8.2c3.9-5.5,5.8-13.4,5.9-23.6v-9.2
		c0-10-2-17.8-6.1-23.6c-4.1-5.7-9.6-8.6-16.7-8.6c-6.9,0-12.4,2.8-16.4,8.4c-4.1,5.6-6.1,13.3-6.2,23.1V146.1z"/>
</g>
<g>
	
		<ellipse transform="matrix(0.9883 -0.1523 0.1523 0.9883 -11.2255 18.4264)" class="st1" cx="114.7" cy="82.5" rx="30.1" ry="7.1"/>
	<path class="st1" d="M81.3,63c-0.1-3.8,12.6-8.8,28.6-11.3c16.1-2.5,29.6-1.5,30.7,2.2l0,0l3.7,24.3l0,0
		c-1.1-3.7-14.6-4.7-30.7-2.2C97.6,78.4,84.9,83.5,85,87.3l0,0L81.3,63L81.3,63z"/>
	
		<rect x="71.2" y="68" transform="matrix(-1 4.219263e-03 -4.219263e-03 -1 144.0556 159.9181)" class="st2" width="1.4" height="24.1"/>
	<path class="st2" d="M66.8,95.8c0-2.1,2.3-3.7,4.7-3.7s4.7,1.5,4.7,3.6c0.1,3.2,0.1,13.2,0.1,13.2l-9.6,0
		C66.7,109.1,66.7,99,66.8,95.8z"/>
	<path class="st1" d="M161.1,47.7l-56.2-13.9L60.8,63.6l21.6,7L81.2,63l0,0c-0.1-3.8,12.6-8.8,28.6-11.3c16.1-2.5,29.6-1.5,30.7,2.2
		l0,0l1,6.7L161.1,47.7z"/>
</g>
</svg>
